<svg xmlns="http://www.w3.org/2000/svg" viewBox="0 0 42.86 42.86"><path class="cls-1" d="M21.43,0A21.43,21.43,0,1,0,42.86,21.43,21.45,21.45,0,0,0,21.43,0ZM25.7,3.2,21.25,7.64,16.89,3.28a18.35,18.35,0,0,1,4.54-.62A18.29,18.29,0,0,1,25.7,3.2Zm-.23,16.17H20.1v1.77h5c-1.2,5.69-2.89,12.4-2.91,12.47-.3,1-.63,1-.77,1-.47,0-.71-.74-.76-.94s-3-12.09-3.87-17.6h5.74V14.29H16.7a3.91,3.91,0,0,1,1-2.49,5.09,5.09,0,0,1,7.52,0,4,4,0,0,1,1,3C26.12,15.94,25.84,17.55,25.47,19.37ZM2.66,21.43A18.76,18.76,0,0,1,15,3.87l4.74,4.75a6.83,6.83,0,0,0-3.36,2A5.65,5.65,0,0,0,14.88,15c.19,1.86.82,5,1.53,8.27A15.37,15.37,0,0,0,6.8,33,18.56,18.56,0,0,1,2.66,21.43ZM36.06,33a15.38,15.38,0,0,0-9.6-9.73C27.17,20.07,27.8,16.89,28,15a5.66,5.66,0,0,0-1.48-4.41,6.93,6.93,0,0,0-3.64-2.1l4.73-4.73A18.55,18.55,0,0,1,36.06,33Z"/></svg>