<svg id="Layer_1" data-name="Layer 1" xmlns="http://www.w3.org/2000/svg" viewBox="0 0 1000 1000"><path class="cls-1" d="M0,500C0,720,143,906.81,340.7,973.53c13.53,4.57,27.34,8.42,41.36,11.83a482.38,482.38,0,0,0,235.88,0c14-3.41,27.83-7.26,41.36-11.83C857.05,906.81,1000,720,1000,500,1000,224.3,775.71,0,500,0S0,224.3,0,500ZM500,938c-41.13,0-80.17-7.53-117.94-18.18V598.86H617.94V919.78C580.17,930.43,541.13,938,500,938ZM938,500c0,185.17-115.91,343-278.66,406.93V557.5H638.63V363.57L520.5,314.69l-57-102.78H361.36V557.5H340.7V906.91C178,843,62,685.15,62,500,62,258.51,258.5,62,500,62S938,258.51,938,500Z"/></svg>