<svg xmlns="http://www.w3.org/2000/svg" viewBox="0 0 14.93 14.93"><path class="cls-1" d="M14.89,4.39a5.17,5.17,0,0,0-.35-1.81,3.76,3.76,0,0,0-.86-1.33A3.87,3.87,0,0,0,12.36.39,5.49,5.49,0,0,0,10.55.05c-.8,0-1.06,0-3.08,0S5.19,0,4.39,0A5.68,5.68,0,0,0,2.58.39a3.76,3.76,0,0,0-1.33.86A3.91,3.91,0,0,0,.39,2.58,5.39,5.39,0,0,0,.05,4.39c0,.8,0,1.05,0,3.08s0,2.28,0,3.07a5.74,5.74,0,0,0,.35,1.82,3.79,3.79,0,0,0,2.19,2.18,5.62,5.62,0,0,0,1.81.35c.79,0,1.05,0,3.07,0s2.29,0,3.08,0a5.68,5.68,0,0,0,1.81-.35,3.82,3.82,0,0,0,2.19-2.18,5.51,5.51,0,0,0,.34-1.82c0-.79,0-1,0-3.07S14.93,5.19,14.89,4.39Zm-1.34,6.1a4.27,4.27,0,0,1-.26,1.38,2.48,2.48,0,0,1-1.42,1.42,4.34,4.34,0,0,1-1.38.26c-.79,0-1,0-3,0s-2.23,0-3,0a4.27,4.27,0,0,1-1.38-.26,2.25,2.25,0,0,1-.86-.56,2.25,2.25,0,0,1-.56-.86,4.08,4.08,0,0,1-.25-1.38c0-.79,0-1,0-3s0-2.23,0-3a4.15,4.15,0,0,1,.25-1.39,2.33,2.33,0,0,1,.56-.86,2.53,2.53,0,0,1,.86-.55A3.85,3.85,0,0,1,4.46,1.4c.78,0,1,0,3,0s2.23,0,3,0a3.78,3.78,0,0,1,1.38.26,2.35,2.35,0,0,1,.86.55,2.41,2.41,0,0,1,.56.86,4.35,4.35,0,0,1,.26,1.39c0,.78,0,1,0,3S13.58,9.7,13.55,10.49Z"/><path class="cls-1" d="M7.47,3.63A3.84,3.84,0,1,0,11.3,7.47,3.84,3.84,0,0,0,7.47,3.63Zm0,6.33A2.49,2.49,0,1,1,10,7.47,2.49,2.49,0,0,1,7.47,10Z"/><path class="cls-1" d="M12.35,3.48a.9.9,0,1,1-.9-.9A.9.9,0,0,1,12.35,3.48Z"/></svg>