<svg xmlns="http://www.w3.org/2000/svg" viewBox="0 0 42.86 42.86"><path class="cls-1" d="M21.43,0A21.43,21.43,0,1,0,42.86,21.43,21.45,21.45,0,0,0,21.43,0Zm.89,30v0a4.17,4.17,0,0,1,4.17-4.14h2.18v2.18a4.18,4.18,0,0,1-4.17,4.18H22.32V30.05Zm6.35-9.93a4.18,4.18,0,0,1-4.17,4.18H22.32V22.1h0v0a4.17,4.17,0,0,1,4.17-4.14h2.18Zm-8.13,2v2.21H18.36a4.19,4.19,0,0,1-4.18-4.18V17.93h2.19A4.17,4.17,0,0,1,20.54,22.08Zm-6.36,3.8h2.19A4.17,4.17,0,0,1,20.54,30v2.21H18.36a4.19,4.19,0,0,1-4.18-4.18Zm8.14,14.27V34H24.5a5.94,5.94,0,0,0,5.94-5.95v-4H28.88a5.88,5.88,0,0,0,1.56-4v-4h-4a5.91,5.91,0,0,0-2.92.8l.73-.73a5.37,5.37,0,0,0,0-7.6L21.43,5.76,18.57,8.62a5.37,5.37,0,0,0,0,7.6l.73.74a5.85,5.85,0,0,0-2.93-.81h-4v4a5.85,5.85,0,0,0,1.57,4H12.41v4A6,6,0,0,0,18.36,34h2.18v6.14a18.77,18.77,0,1,1,1.78,0Z"/></svg>