<?xml version="1.0" encoding="utf-8"?>
<!-- Generator: Adobe Illustrator 25.0.0, SVG Export Plug-In . SVG Version: 6.00 Build 0)  -->
<svg version="1.1" xmlns="http://www.w3.org/2000/svg" xmlns:xlink="http://www.w3.org/1999/xlink" x="0px" y="0px"
	 viewBox="0 0 46.95 19" style="enable-background:new 0 0 46.95 19;" xml:space="preserve">
	<g>
		<g>
			<g>
				<path class="st1" d="M13.09,15.73c-0.16-0.04-0.27-0.08-0.32-0.11c-0.14-0.08-0.24-0.19-0.29-0.32
					c-0.06-0.13-0.09-0.35-0.1-0.67c-0.02-0.44-0.04-0.85-0.05-1.26c-0.01-0.4-0.02-0.78-0.02-1.14c0-0.19,0-0.46,0.01-0.8
					c0.01-0.34,0.01-0.58,0.01-0.74c0-0.47-0.01-0.85-0.03-1.13c-0.02-0.28-0.05-0.51-0.09-0.7c-0.24-1.05-0.65-1.83-1.24-2.34
					c-0.59-0.51-1.38-0.76-2.37-0.76c-0.55,0-1.03,0.09-1.46,0.28C6.7,6.23,6.32,6.5,6,6.88c-0.1,0.11-0.23,0.27-0.38,0.49
					C5.43,7.62,5.28,7.75,5.19,7.75c-0.04,0-0.07-0.02-0.09-0.06C5.07,7.66,5.06,7.57,5.06,7.45V6.56c0-0.3-0.04-0.51-0.11-0.62
					C4.87,5.82,4.74,5.77,4.55,5.77c-0.53,0-1.09,0.14-1.68,0.41C2.29,6.45,2,6.71,2,6.96C2,7.2,2.18,7.35,2.55,7.4
					s0.58,0.13,0.64,0.22c0.09,0.13,0.16,0.49,0.2,1.08c0.04,0.59,0.07,1.42,0.07,2.49c0,1.41-0.02,2.43-0.05,3.05
					c-0.03,0.62-0.08,1-0.16,1.14c-0.08,0.13-0.29,0.25-0.61,0.35c-0.32,0.1-0.48,0.24-0.48,0.42c0,0.22,0.17,0.38,0.5,0.48
					c0.33,0.1,0.87,0.15,1.61,0.15c0.73,0,1.26-0.05,1.59-0.15c0.33-0.1,0.49-0.26,0.49-0.48c0-0.18-0.16-0.32-0.48-0.42
					c-0.32-0.1-0.52-0.22-0.61-0.35c-0.07-0.12-0.12-0.45-0.15-1.01c-0.03-0.56-0.04-1.61-0.04-3.17v-0.77
					c0-0.49,0.03-0.86,0.1-1.11c0.07-0.25,0.18-0.47,0.35-0.67C5.9,8.17,6.31,7.81,6.79,7.56C7.26,7.32,7.76,7.2,8.31,7.2
					c0.84,0,1.45,0.28,1.82,0.84c0.37,0.56,0.56,1.5,0.56,2.81c0,1.9-0.01,3.1-0.04,3.6c-0.03,0.51-0.08,0.81-0.15,0.92
					c-0.08,0.13-0.28,0.25-0.6,0.35c-0.32,0.1-0.48,0.24-0.48,0.42c0,0.22,0.16,0.38,0.49,0.48c0.33,0.1,0.85,0.15,1.59,0.15
					c0.74,0,1.27-0.05,1.6-0.15c0.33-0.1,0.49-0.26,0.49-0.48C13.58,15.96,13.42,15.82,13.09,15.73"/>
			</g>
			<g>
				<path class="st1" d="M43.14,9.96c-0.06,0.06-0.16,0.09-0.32,0.09h-5.25c-0.14,0-0.23-0.02-0.29-0.07
					c-0.05-0.04-0.08-0.12-0.08-0.23c0-0.25,0.07-0.54,0.22-0.88s0.34-0.65,0.59-0.94c0.3-0.36,0.66-0.64,1.05-0.83
					c0.4-0.19,0.82-0.29,1.26-0.29c0.84,0,1.53,0.27,2.08,0.8c0.55,0.54,0.82,1.21,0.82,2.02C43.22,9.79,43.19,9.9,43.14,9.96
					 M43.77,6.91c-0.78-0.75-1.84-1.12-3.17-1.12c-1.54,0-2.81,0.54-3.83,1.63c-1.02,1.09-1.53,2.47-1.53,4.13
					c0,1.56,0.49,2.86,1.46,3.89c0.97,1.03,2.2,1.54,3.68,1.54c0.78,0,1.51-0.15,2.2-0.45c0.57-0.25,1.08-0.6,1.54-1.04l0,0l0,0
					c0.03-0.03,0.06-0.07,0.09-0.1c0.13-0.16,0.21-0.32,0.24-0.47c0.02-0.11,0-0.21-0.06-0.29c-0.06-0.09-0.15-0.14-0.26-0.16
					c-0.2-0.04-0.47,0.08-0.82,0.35c-0.12,0.09-0.23,0.17-0.33,0.24c-0.29,0.22-0.6,0.39-0.94,0.51c-0.39,0.14-0.79,0.21-1.21,0.21
					c-1.07,0-1.94-0.41-2.63-1.24s-1.03-1.89-1.03-3.18c0-0.16,0.03-0.27,0.08-0.32c0.05-0.06,0.15-0.08,0.29-0.08h6.55
					c0.4,0,0.65-0.06,0.74-0.19c0.09-0.12,0.14-0.39,0.14-0.81C44.95,8.67,44.55,7.66,43.77,6.91"/>
			</g>
			<g>
				<path class="st1" d="M24.96,5.77c-0.13,0-0.29,0.02-0.46,0.07c-0.38,0.11-0.72,0.2-1.08,0.34c-0.17,0.08-0.32,0.15-0.43,0.22
					l0,0c-0.51,0.29-0.42,0.78-0.34,1.5l0,0.01c0.01,0.26,0.03,0.57,0.05,0.91c0.05,0.87,0.08,1.11,0.08,1.61v0.59
					c0,1-0.02,1.73-0.07,2.19c-0.05,0.46-0.12,0.83-0.23,1.13c-0.15,0.42-0.42,0.75-0.79,1c-0.19,0.12-0.74,0.37-1.64,0.37
					c-0.91,0-1.45-0.25-1.64-0.37c-0.38-0.24-0.64-0.57-0.79-1c-0.11-0.3-0.19-0.67-0.23-1.13c-0.05-0.46-0.07-1.19-0.07-2.19v-0.59
					c0-0.51,0.03-1.19,0.08-2.06c0.05-0.86,0.08-1.48,0.08-1.84c0-0.3-0.04-0.5-0.12-0.61c-0.08-0.11-0.23-0.16-0.44-0.16
					c-0.15,0-0.41,0.04-0.77,0.13c-0.36,0.09-0.72,0.2-1.08,0.34c-0.27,0.12-0.47,0.23-0.6,0.34c-0.13,0.11-0.19,0.23-0.19,0.36
					c0.01,0.25,0.18,0.4,0.53,0.44c0.35,0.05,0.54,0.08,0.58,0.11c0.12,0.08,0.2,0.29,0.25,0.62c0.05,0.33,0.07,1,0.07,2.01v1.79
					c0,1.76,0.31,3.03,0.89,3.85c0.89,1.26,3.19,1.21,3.45,1.21c0.26,0,2.56,0.05,3.45-1.21c0.58-0.82,0.89-2.09,0.89-3.85v-1.79
					c0-1.01-0.03-2.23,0.07-2.36c0.02-0.03,0.43-0.46,0.55-0.6c0.11-0.12,0.27-0.28,0.34-0.37c0.14-0.17,0.2-0.31,0.23-0.47
					c0.02-0.12-0.02-0.3-0.12-0.41C25.38,5.82,25.23,5.77,24.96,5.77"/>
			</g>
			<g>
				<path class="st1" d="M33.63,14.46c-0.2,0.04-0.35,0.21-0.49,0.35c-0.28,0.29-0.59,0.54-0.97,0.7c-0.27,0.11-0.51,0.17-0.71,0.17
					c-0.42,0-0.72-0.15-0.89-0.46c-0.17-0.31-0.25-0.9-0.25-1.77V7.21c0-0.11,0.02-0.2,0.06-0.25c0.04-0.06,0.1-0.09,0.17-0.09h3.07
					c0.13,0,0.23-0.03,0.29-0.1c0.06-0.07,0.09-0.17,0.09-0.3V6.19c0-0.15-0.03-0.26-0.09-0.32c-0.06-0.07-0.16-0.1-0.3-0.1h-3.3
					V3.88c0-0.1-0.03-0.18-0.09-0.24c-0.06-0.06-0.14-0.08-0.25-0.08c-0.19,0-0.54,0.3-1.06,0.89c-0.14,0.16-0.25,0.28-0.33,0.37
					c-0.08,0.09-0.19,0.21-0.34,0.37c-0.52,0.57-0.78,0.96-0.78,1.17v0.29c0,0.07,0.03,0.12,0.08,0.16
					c0.06,0.04,0.13,0.06,0.24,0.06h0.89v0.47v6.15v0.47c0,1.1,0.16,1.88,0.49,2.35c0.33,0.46,0.86,0.7,1.62,0.7
					c0.57,0,0.99-0.03,1.58-0.29c0.32-0.15,0.72-0.37,1.02-0.66c0.27-0.25,0.54-0.5,0.71-0.83c0.08-0.15,0.12-0.35,0.05-0.51
					C34.07,14.52,33.83,14.42,33.63,14.46"/>
			</g>
			<g>
				<path class="st1" d="M17.41,4.07c0.3,0,0.56-0.11,0.78-0.32c0.22-0.22,0.33-0.46,0.33-0.74c0-0.29-0.1-0.52-0.31-0.71
					C18.01,2.1,17.75,2,17.45,2c-0.3,0-0.56,0.11-0.77,0.32c-0.21,0.21-0.31,0.47-0.31,0.79c0,0.27,0.1,0.5,0.31,0.68
					C16.88,3.97,17.12,4.07,17.41,4.07"/>
			</g>
			<g>
				<path class="st1" d="M22.62,4.07c0.3,0,0.56-0.11,0.78-0.32c0.22-0.22,0.33-0.46,0.33-0.74c0-0.29-0.1-0.52-0.31-0.71
					C23.22,2.1,22.96,2,22.66,2c-0.3,0-0.56,0.11-0.77,0.32c-0.21,0.21-0.31,0.47-0.31,0.79c0,0.27,0.1,0.5,0.31,0.68
					C22.09,3.97,22.33,4.07,22.62,4.07"/>
			</g>
		</g>
	</g>
</svg>
