<svg xmlns="http://www.w3.org/2000/svg" viewBox="0 0 42.86 42.86"><path class="cls-1" d="M21.43,0A21.43,21.43,0,1,0,42.86,21.43,21.45,21.45,0,0,0,21.43,0ZM36,33.07A15.36,15.36,0,0,0,22.32,22.45v-3H24.5a5.94,5.94,0,0,0,5.94-5.95v-4h-4a5.91,5.91,0,0,0-5.06,2.85,5.92,5.92,0,0,0-5.06-2.85h-4v4a6,6,0,0,0,5.95,5.95h2.18V22h0v.42A15.33,15.33,0,0,0,6.82,33.07,18.6,18.6,0,0,1,2.66,21.43a18.77,18.77,0,0,1,37.54,0A18.6,18.6,0,0,1,36,33.07ZM22.32,15.45h0a4.17,4.17,0,0,1,4.17-4.16h2.18v2.18a4.18,4.18,0,0,1-4.17,4.18H22.32V15.45Zm-1.78,0h0v2.19H18.36a4.19,4.19,0,0,1-4.18-4.18V11.28h2.19A4.17,4.17,0,0,1,20.54,15.44Z"/></svg>