<svg xmlns="http://www.w3.org/2000/svg" viewBox="0 0 14.93 15"><path class="cls-1" d="M12.75,2.18A7.35,7.35,0,0,0,7.5,0,7.44,7.44,0,0,0,1.05,11.15L0,15l3.94-1a7.46,7.46,0,0,0,3.55.9h0a7.44,7.44,0,0,0,7.43-7.43A7.36,7.36,0,0,0,12.75,2.18ZM7.5,13.62h0a6.09,6.09,0,0,1-3.14-.87l-.23-.13-2.34.61L2.41,11l-.15-.23a6.18,6.18,0,1,1,5.24,2.9ZM10.88,9c-.18-.09-1.09-.54-1.27-.61s-.29-.09-.41.1-.48.6-.59.73-.22.14-.4,0a5,5,0,0,1-1.5-.92A5.52,5.52,0,0,1,5.68,7c-.11-.18,0-.27.08-.38A6.18,6.18,0,0,0,6.23,6a.35.35,0,0,0,0-.33c0-.09-.42-1-.57-1.37S5.33,4,5.22,4H4.86a.7.7,0,0,0-.49.23,2.1,2.1,0,0,0-.65,1.55A3.51,3.51,0,0,0,4.48,7.7a8.25,8.25,0,0,0,3.17,2.81c.44.19.79.3,1.06.39A2.53,2.53,0,0,0,9.88,11a1.91,1.91,0,0,0,1.25-.88,1.47,1.47,0,0,0,.11-.88C11.19,9.13,11.07,9.08,10.88,9Z"/></svg>